<svg xmlns="http://www.w3.org/2000/svg" version="1.1" xmlns:xlink="http://www.w3.org/1999/xlink" xmlns:svgjs="http://svgjs.dev/svgjs" viewBox="0 0 17.236495197341082 3.3629071080597908"><g transform="matrix(1,0,0,1,3.3075491136324575,0.6422723040298952)"><g><path d=" M 0.3165 0.546 L 0.9450000000000001 0.546 L 0.9450000000000001 1.068 L 1.0815000000000001 1.068 L 1.0815000000000001 0.018000000000000016 L 0.9450000000000001 0.018000000000000016 L 0.9450000000000001 0.4770000000000001 L 0.3165 0.4770000000000001 L 0.3165 0.018000000000000016 L 0.18 0.018000000000000016 L 0.18 1.068 L 0.3165 1.068 L 0.3165 0.546 Z M 1.45641357421875 0.018000000000000016 L 1.45641357421875 1.068 L 2.13441357421875 1.068 L 2.13441357421875 0.9855 L 1.5929135742187501 0.9855 L 1.5929135742187501 0.546 L 2.05791357421875 0.546 L 2.05791357421875 0.4770000000000001 L 1.5929135742187501 0.4770000000000001 L 1.5929135742187501 0.10050000000000003 L 2.13441357421875 0.10050000000000003 L 2.13441357421875 0.018000000000000016 L 1.45641357421875 0.018000000000000016 Z M 2.9578981933593753 0.7590000000000001 L 3.101898193359375 1.068 L 3.247398193359375 1.068 L 2.7583981933593753 0.018000000000000016 L 2.683398193359375 0.018000000000000016 L 2.239398193359375 1.068 L 2.308398193359375 1.068 L 2.4403981933593752 0.7590000000000001 L 2.9578981933593753 0.7590000000000001 Z M 2.9263981933593755 0.6915 L 2.4688981933593754 0.6915 L 2.684898193359375 0.18600000000000005 L 2.6908981933593754 0.18600000000000005 L 2.9263981933593755 0.6915 Z M 3.4873901367187505 1.068 L 3.4873901367187505 0.018000000000000016 L 3.6238901367187504 0.018000000000000016 L 3.6238901367187504 0.9855 L 4.1653901367187505 0.9855 L 4.1653901367187505 1.068 L 3.4873901367187505 1.068 Z M 4.553823486328126 1.068 L 4.553823486328126 0.10050000000000003 L 4.955823486328126 0.10050000000000003 L 4.955823486328126 0.018000000000000016 L 4.015323486328126 0.018000000000000016 L 4.015323486328126 0.10050000000000003 L 4.417323486328126 0.10050000000000003 L 4.417323486328126 1.068 L 4.553823486328126 1.068 Z M 5.317311767578126 0.546 L 5.945811767578126 0.546 L 5.945811767578126 1.068 L 6.082311767578126 1.068 L 6.082311767578126 0.018000000000000016 L 5.945811767578126 0.018000000000000016 L 5.945811767578126 0.4770000000000001 L 5.317311767578126 0.4770000000000001 L 5.317311767578126 0.018000000000000016 L 5.180811767578126 0.018000000000000016 L 5.180811767578126 1.068 L 5.317311767578126 1.068 L 5.317311767578126 0.546 Z M 7.133688720703127 0.6300000000000001 Q 7.1726887207031265 0.6405000000000001 7.217688720703126 0.6472500000000001 Q 7.262688720703126 0.654 7.316688720703127 0.654 Q 7.4081887207031265 0.654 7.4786887207031265 0.6285000000000001 Q 7.5491887207031265 0.603 7.5964387207031265 0.5587500000000001 Q 7.6436887207031265 0.5145000000000001 7.667688720703127 0.4567500000000001 Q 7.691688720703127 0.399 7.691688720703127 0.3330000000000001 Q 7.691688720703127 0.27 7.670688720703127 0.21225000000000005 Q 7.649688720703127 0.15450000000000008 7.606938720703126 0.11175000000000002 Q 7.564188720703126 0.06900000000000006 7.499688720703126 0.043500000000000094 Q 7.435188720703127 0.018000000000000016 7.348188720703126 0.018000000000000016 L 6.997188720703126 0.018000000000000016 L 6.997188720703126 1.068 L 7.133688720703127 1.068 L 7.133688720703127 0.6300000000000001 Z M 7.133688720703127 0.08400000000000007 L 7.2911887207031265 0.08400000000000007 Q 7.354188720703126 0.08400000000000007 7.402188720703126 0.10650000000000004 Q 7.450188720703126 0.129 7.481688720703127 0.16575000000000006 Q 7.513188720703126 0.2025 7.528938720703127 0.24825000000000008 Q 7.544688720703126 0.29400000000000004 7.544688720703126 0.3390000000000001 Q 7.544688720703126 0.38250000000000006 7.530438720703127 0.4267500000000001 Q 7.516188720703126 0.4710000000000001 7.484688720703126 0.507 Q 7.453188720703126 0.543 7.405188720703126 0.5655 Q 7.357188720703126 0.5880000000000001 7.2896887207031265 0.5880000000000001 Q 7.2431887207031265 0.5880000000000001 7.204188720703126 0.58425 Q 7.165188720703126 0.5805 7.133688720703127 0.5685 L 7.133688720703127 0.08400000000000007 Z M 8.515152832031252 0.7590000000000001 L 8.659152832031252 1.068 L 8.804652832031252 1.068 L 8.315652832031251 0.018000000000000016 L 8.240652832031252 0.018000000000000016 L 7.796652832031251 1.068 L 7.865652832031251 1.068 L 7.997652832031251 0.7590000000000001 L 8.515152832031252 0.7590000000000001 Z M 8.48365283203125 0.6915 L 8.02615283203125 0.6915 L 8.242152832031252 0.18600000000000005 L 8.24815283203125 0.18600000000000005 L 8.48365283203125 0.6915 Z M 9.928144775390626 0.8745 Q 9.775144775390627 1.0185 9.565144775390626 1.0185 Q 9.448144775390627 1.0185 9.358144775390626 0.9780000000000001 Q 9.268144775390626 0.9375 9.208144775390627 0.8700000000000001 Q 9.148144775390627 0.8025 9.117394775390627 0.7140000000000001 Q 9.086644775390626 0.6255000000000001 9.086644775390626 0.5295000000000001 Q 9.086644775390626 0.4275000000000001 9.118894775390627 0.34275 Q 9.151144775390627 0.258 9.209644775390627 0.1965 Q 9.268144775390626 0.135 9.348394775390627 0.10050000000000003 Q 9.428644775390627 0.06600000000000006 9.523144775390627 0.06600000000000006 Q 9.587644775390627 0.06600000000000006 9.640894775390626 0.08100000000000007 Q 9.694144775390626 0.09600000000000009 9.735394775390626 0.12 Q 9.776644775390627 0.14400000000000002 9.802894775390627 0.17475000000000007 Q 9.829144775390626 0.20550000000000002 9.839644775390626 0.237 L 9.950644775390627 0.237 Q 9.928144775390626 0.18600000000000005 9.892894775390626 0.14250000000000007 Q 9.857644775390627 0.09900000000000009 9.805144775390627 0.06750000000000012 Q 9.752644775390626 0.03600000000000003 9.682144775390627 0.018000000000000016 Q 9.611644775390626 0 9.521644775390627 0 Q 9.391144775390627 0 9.283894775390626 0.03750000000000009 Q 9.176644775390626 0.07500000000000007 9.100144775390627 0.14475000000000005 Q 9.023644775390627 0.21450000000000002 8.981644775390627 0.3127500000000001 Q 8.939644775390626 0.41100000000000003 8.939644775390626 0.5325000000000001 Q 8.939644775390626 0.6375000000000001 8.973394775390627 0.7372500000000001 Q 9.007144775390627 0.8370000000000001 9.077644775390626 0.91425 Q 9.148144775390627 0.9915 9.257644775390627 1.03875 Q 9.367144775390626 1.086 9.518644775390626 1.086 Q 9.614644775390627 1.086 9.690394775390626 1.068 Q 9.766144775390627 1.05 9.822394775390627 1.0237500000000002 Q 9.878644775390626 0.9975 9.916144775390627 0.9675 Q 9.953644775390627 0.9375 9.973144775390626 0.915 L 9.928144775390626 0.8745 Z M 10.258103027343752 0.018000000000000016 L 10.258103027343752 1.068 L 10.394603027343752 1.068 L 10.394603027343752 0.018000000000000016 L 10.258103027343752 0.018000000000000016 Z M 10.829527587890627 0.018000000000000016 L 10.829527587890627 1.068 L 10.966027587890627 1.068 L 10.966027587890627 0.546 L 11.431027587890627 0.546 L 11.431027587890627 0.4770000000000001 L 10.966027587890627 0.4770000000000001 L 10.966027587890627 0.10050000000000003 L 11.507527587890628 0.10050000000000003 L 11.507527587890628 0.018000000000000016 L 10.829527587890627 0.018000000000000016 Z M 11.807512207031253 0.018000000000000016 L 11.807512207031253 1.068 L 11.944012207031253 1.068 L 11.944012207031253 0.018000000000000016 L 11.807512207031253 0.018000000000000016 Z M 13.262436767578128 0.8745 Q 13.10943676757813 1.0185 12.899436767578129 1.0185 Q 12.78243676757813 1.0185 12.692436767578128 0.9780000000000001 Q 12.602436767578128 0.9375 12.54243676757813 0.8700000000000001 Q 12.482436767578129 0.8025 12.45168676757813 0.7140000000000001 Q 12.420936767578128 0.6255000000000001 12.420936767578128 0.5295000000000001 Q 12.420936767578128 0.4275000000000001 12.45318676757813 0.34275 Q 12.485436767578129 0.258 12.54393676757813 0.1965 Q 12.602436767578128 0.135 12.68268676757813 0.10050000000000003 Q 12.762936767578129 0.06600000000000006 12.857436767578129 0.06600000000000006 Q 12.92193676757813 0.06600000000000006 12.975186767578128 0.08100000000000007 Q 13.028436767578128 0.09600000000000009 13.069686767578128 0.12 Q 13.11093676757813 0.14400000000000002 13.137186767578129 0.17475000000000007 Q 13.163436767578128 0.20550000000000002 13.173936767578128 0.237 L 13.28493676757813 0.237 Q 13.262436767578128 0.18600000000000005 13.227186767578129 0.14250000000000007 Q 13.19193676757813 0.09900000000000009 13.139436767578129 0.06750000000000012 Q 13.086936767578129 0.03600000000000003 13.01643676757813 0.018000000000000016 Q 12.945936767578129 0 12.855936767578129 0 Q 12.72543676757813 0 12.618186767578129 0.03750000000000009 Q 12.510936767578128 0.07500000000000007 12.434436767578129 0.14475000000000005 Q 12.35793676757813 0.21450000000000002 12.31593676757813 0.3127500000000001 Q 12.273936767578128 0.41100000000000003 12.273936767578128 0.5325000000000001 Q 12.273936767578128 0.6375000000000001 12.30768676757813 0.7372500000000001 Q 12.341436767578129 0.8370000000000001 12.411936767578128 0.91425 Q 12.482436767578129 0.9915 12.59193676757813 1.03875 Q 12.701436767578128 1.086 12.852936767578129 1.086 Q 12.948936767578129 1.086 13.024686767578128 1.068 Q 13.10043676757813 1.05 13.15668676757813 1.0237500000000002 Q 13.212936767578128 0.9975 13.25043676757813 0.9675 Q 13.28793676757813 0.9375 13.307436767578128 0.915 L 13.262436767578128 0.8745 Z" fill="#404040" fill-rule="nonzero"></path></g><g><path d=" M 0.35100000000000003 1.8136124999999998 Q 0.30675 1.8548624999999999 0.21825 1.8548624999999999 L 0.1125 1.8548624999999999 L 0.1125 2.0783625 L 0.06 2.0783625 L 0.06 1.5541125 L 0.21825 1.5541125 Q 0.306 1.5541125 0.350625 1.5953624999999998 Q 0.39525 1.6366124999999998 0.39525 1.7048625 Q 0.39525 1.7723624999999998 0.35100000000000003 1.8136124999999998 Z M 0.34125 1.7048625 Q 0.34125 1.6523625 0.312 1.6253624999999998 Q 0.28275 1.5983625 0.21825 1.5983625 L 0.1125 1.5983625 L 0.1125 1.8098625 L 0.21825 1.8098625 Q 0.34125 1.8098625 0.34125 1.7048625 Z M 0.7942236328125001 1.9538624999999998 L 0.5557236328125 1.9538624999999998 L 0.5099736328125 2.0783625 L 0.45447363281250003 2.0783625 L 0.6457236328125 1.5608624999999998 L 0.7049736328125 1.5608624999999998 L 0.8954736328125 2.0783625 L 0.8399736328125 2.0783625 L 0.7942236328125001 1.9538624999999998 Z M 0.7784736328125 1.9103625 L 0.6749736328125 1.6268624999999999 L 0.5714736328125001 1.9103625 L 0.7784736328125 1.9103625 Z M 1.265956787109375 2.0783625 L 1.136206787109375 1.8593624999999998 L 1.039456787109375 1.8593624999999998 L 1.039456787109375 2.0783625 L 0.986956787109375 2.0783625 L 0.986956787109375 1.5541125 L 1.144456787109375 1.5541125 Q 1.2322067871093751 1.5541125 1.277581787109375 1.5961124999999998 Q 1.322956787109375 1.6381124999999999 1.322956787109375 1.7063625 Q 1.322956787109375 1.7633625 1.2903317871093751 1.8034875 Q 1.257706787109375 1.8436124999999999 1.193956787109375 1.8556124999999999 L 1.328956787109375 2.0783625 L 1.265956787109375 2.0783625 Z M 1.039456787109375 1.8166125 L 1.145206787109375 1.8166125 Q 1.206706787109375 1.8166125 1.237831787109375 1.7866125 Q 1.268956787109375 1.7566125 1.268956787109375 1.7063625 Q 1.268956787109375 1.6546124999999998 1.238956787109375 1.6264874999999999 Q 1.2089567871093752 1.5983625 1.144456787109375 1.5983625 L 1.039456787109375 1.5983625 L 1.039456787109375 1.8166125 Z M 1.7414381103515626 1.5541125 L 1.7414381103515626 1.5976124999999999 L 1.5959381103515624 1.5976124999999999 L 1.5959381103515624 2.0783625 L 1.5434381103515624 2.0783625 L 1.5434381103515624 1.5976124999999999 L 1.3971881103515624 1.5976124999999999 L 1.3971881103515624 1.5541125 L 1.7414381103515626 1.5541125 Z M 2.227406982421875 2.0783625 L 2.174906982421875 2.0783625 L 1.884656982421875 1.6373624999999998 L 1.884656982421875 2.0783625 L 1.832156982421875 2.0783625 L 1.832156982421875 1.5541125 L 1.884656982421875 1.5541125 L 2.174906982421875 1.9943624999999998 L 2.174906982421875 1.5541125 L 2.227406982421875 1.5541125 L 2.227406982421875 2.0783625 Z M 2.4066375732421874 1.5968624999999999 L 2.4066375732421874 1.7926125 L 2.6053875732421874 1.7926125 L 2.6053875732421874 1.8361124999999998 L 2.4066375732421874 1.8361124999999998 L 2.4066375732421874 2.0348625 L 2.6278875732421874 2.0348625 L 2.6278875732421874 2.0783625 L 2.3541375732421876 2.0783625 L 2.3541375732421876 1.5533625 L 2.6278875732421874 1.5533625 L 2.6278875732421874 1.5968624999999999 L 2.4066375732421874 1.5968624999999999 Z M 3.017880615234375 2.0783625 L 2.888130615234375 1.8593624999999998 L 2.7913806152343748 1.8593624999999998 L 2.7913806152343748 2.0783625 L 2.738880615234375 2.0783625 L 2.738880615234375 1.5541125 L 2.8963806152343747 1.5541125 Q 2.984130615234375 1.5541125 3.029505615234375 1.5961124999999998 Q 3.074880615234375 1.6381124999999999 3.074880615234375 1.7063625 Q 3.074880615234375 1.7633625 3.042255615234375 1.8034875 Q 3.009630615234375 1.8436124999999999 2.945880615234375 1.8556124999999999 L 3.080880615234375 2.0783625 L 3.017880615234375 2.0783625 Z M 2.7913806152343748 1.8166125 L 2.8971306152343748 1.8166125 Q 2.958630615234375 1.8166125 2.989755615234375 1.7866125 Q 3.020880615234375 1.7566125 3.020880615234375 1.7063625 Q 3.020880615234375 1.6546124999999998 2.9908806152343748 1.6264874999999999 Q 2.960880615234375 1.5983625 2.8963806152343747 1.5983625 L 2.7913806152343748 1.5983625 L 2.7913806152343748 1.8166125 Z M 3.2544869384765622 2.0656125 Q 3.215111938476562 2.0476125 3.192611938476562 2.0153624999999997 Q 3.170111938476562 1.9831124999999998 3.168611938476562 1.9433624999999999 L 3.2241119384765624 1.9433624999999999 Q 3.227861938476562 1.9816124999999998 3.2578619384765624 2.0104875 Q 3.287861938476562 2.0393624999999997 3.345611938476562 2.0393624999999997 Q 3.3988619384765624 2.0393624999999997 3.429986938476562 2.0119875 Q 3.461111938476562 1.9846125 3.461111938476562 1.9426124999999999 Q 3.461111938476562 1.9088625 3.4438619384765623 1.8882374999999998 Q 3.426611938476562 1.8676125 3.4011119384765625 1.8574875 Q 3.3756119384765624 1.8473624999999998 3.3306119384765625 1.8353625 Q 3.2781119384765622 1.8211125 3.2473619384765624 1.8076124999999998 Q 3.216611938476562 1.7941124999999998 3.194861938476562 1.7656124999999998 Q 3.1731119384765623 1.7371124999999998 3.1731119384765623 1.6883624999999998 Q 3.1731119384765623 1.6478625 3.194111938476562 1.6159875 Q 3.215111938476562 1.5841124999999998 3.253361938476562 1.5661125 Q 3.2916119384765623 1.5481124999999998 3.3411119384765624 1.5481124999999998 Q 3.413861938476562 1.5481124999999998 3.4584869384765624 1.5837374999999998 Q 3.5031119384765623 1.6193624999999998 3.509861938476562 1.6756125 L 3.452861938476562 1.6756125 Q 3.4476119384765624 1.6433624999999998 3.417611938476562 1.6182374999999998 Q 3.3876119384765624 1.5931125 3.3366119384765622 1.5931125 Q 3.289361938476562 1.5931125 3.2578619384765624 1.6182374999999998 Q 3.226361938476562 1.6433624999999998 3.226361938476562 1.6868625 Q 3.226361938476562 1.7198624999999998 3.2436119384765623 1.7401125 Q 3.2608619384765625 1.7603624999999998 3.286736938476562 1.7708624999999998 Q 3.312611938476562 1.7813625 3.356861938476562 1.7933624999999997 Q 3.4078619384765623 1.8076124999999998 3.439361938476562 1.8214875 Q 3.4708619384765624 1.8353625 3.4926119384765624 1.8638625 Q 3.5143619384765623 1.8923625 3.5143619384765623 1.9403625 Q 3.5143619384765623 1.9771124999999998 3.4948619384765625 2.0101125 Q 3.475361938476562 2.0431125 3.437111938476562 2.0633624999999998 Q 3.3988619384765624 2.0836125 3.345611938476562 2.0836125 Q 3.2938619384765624 2.0836125 3.2544869384765622 2.0656125 Z" fill="#4e888f" fill-rule="nonzero"></path></g><g clip-path="url(&quot;#SvgjsClipPath1002&quot;)"><g clip-path="url(&quot;#SvgjsClipPath1000&quot;)"><path d=" M -1.5979979092073493 0.5021045058214442 C -1.6917760544754474 1.1309907700811728 -1.281049254112306 1.533664103770527 -2.1603088489637723 1.6270843171864577 C -2.0724601994949388 1.5616100968307411 -2.002587208914565 1.4749922133535724 -1.9571825228582536 1.3752792591860485 C -1.8923307525039728 1.2391319665450498 -1.8356764544224942 1.0992293169577683 -1.7875228249304755 0.9563200262230396 C -1.733192813780681 0.8013740733756847 -1.669911334408472 0.6497136440587183 -1.5979979092073475 0.5021045058214401 Z" fill="#4e888f" transform="matrix(1,0,0,1,0,0)" fill-rule="evenodd"></path></g><g clip-path="url(&quot;#SvgjsClipPath1000&quot;)"><path d=" M -2.0244737110658955 1.7237259172719024 C -1.486323171330835 1.568741425283022 -1.404356777184291 1.2088409479277815 -0.744151475859834 1.5447599911877454 C -0.8273368376945558 1.5465579205758122 -0.9099112692053117 1.5594376059572266 -0.9896927264472977 1.5830586993697546 C -1.1368027176884747 1.6220732712561008 -1.2790806289253804 1.6725416624118332 -1.428338211279567 1.704576563180897 C -1.6237567180647243 1.750860939014562 -1.8264876020372318 1.7573731589440298 -2.0244737110658964 1.7237259172719024 Z" fill="#4e888f" transform="matrix(1,0,0,1,0,0)" fill-rule="evenodd"></path></g><g clip-path="url(&quot;#SvgjsClipPath1000&quot;)"><path d=" M -1.5274853343301906 0.5982092081286366 C -1.5301698232214525 1.4393490607241755 -1.2516988422345041 1.243560337588108 -0.7579318521683132 1.4259266162678639 L -0.7706384329202887 1.4117883081072153 C -0.9218646404614017 1.2435603375881072 -1.0961774524673713 1.101461392277287 -1.2579626496474494 0.9443293091753963 C -1.3681745813218948 0.8463720191278115 -1.4595213335791417 0.7290648352861685 -1.5274853343301906 0.5982092081286366 Z" fill="#4e888f" transform="matrix(1,0,0,1,0,0)" fill-rule="evenodd"></path></g><g clip-path="url(&quot;#SvgjsClipPath1000&quot;)"><path d=" M -1.3674897964109534 0.010664072794347598 C -2.0654569081391676 0.6862604437620411 -1.8651940368509954 2.020988320497687 -2.7159980494550786 1.4547401303674137 C -2.1109142533645437 1.0463398870433664 -2.2571294149753007 0.2544156641209703 -1.3674897964109534 0.010664072794347598 Z" fill="#404040" transform="matrix(1,0,0,1,0,0)" fill-rule="evenodd"></path></g><g clip-path="url(&quot;#SvgjsClipPath1000&quot;)"><path d=" M -0.41181175112155355 1.7937015943708075 C -0.7176645187993784 0.9672369477141682 -2.03628546218745 0.6626369415189328 -1.2062414970091286 -0.05072123985251748 C -1.1538044806664698 0.7336864141743439 -0.28850422804956954 0.9074623284020611 -0.41181175112155355 1.7937015943708075 Z" fill="#404040" transform="matrix(1,0,0,1,0,0)" fill-rule="evenodd"></path></g><g clip-path="url(&quot;#SvgjsClipPath1000&quot;)"><path d=" M -2.6381478716084716 1.5769738578828931 C -1.3866391505019589 2.3717615356226354 -0.6448253868831273 1.0415078070390942 -0.40214759111300946 2.019198661236846 C -1.1402030702840744 1.939916755981564 -2.13614844894241 2.533188800950546 -2.6381478716084716 1.5769738578828931 Z" fill="#404040" transform="matrix(1,0,0,1,0,0)" fill-rule="evenodd"></path></g></g></g><defs><clipPath id="SvgjsClipPath1002"><path d=" M -2.7159980494550804 -0.05072123985251831 h 2.3159980494550805 v 2.1798049797050365 h -2.3159980494550805 Z"></path></clipPath><clipPath id="SvgjsClipPath1000"><path d=" M -2.7159980494550804 -0.05072123985251831 L -0.3999999999999999 -0.05072123985251831 L -0.3999999999999999 2.1290837398525184 L -2.7159980494550804 2.1290837398525184 Z"></path></clipPath></defs></svg>